<svg id="Capa_1" data-name="Capa 1" xmlns="http://www.w3.org/2000/svg" viewBox="0 0 499.41 430.7"><defs><style>.cls-1{fill:#60759f;}</style></defs><path class="cls-1" d="M480.7,453c-4.83-3.12-10.91-6.23-17.61-9.66V214.94L364.76,175.2h0l-42.22,17.15V399.59c-6.39-.93-12.94-1.56-19.48-2.34V200.6l-36.62,14.34v180H248.52V202.79l11.53-4.68,36.31-14.34,6.07-2.49h1.87l17.61-7.17,35.37-14.18,6.86-2.8V81.4L247.9,34.65,197.1,55.06V274.15l5.76,3.12,11.69,4.67V396H213.3l-12.15,1.24h-5.3V294.1l-20.41-8.26L132,267.92l-2.8-1.09-29.61,12V417.51l-7.48,2.34L82.88,423l-2,.78V286.31L62.62,294.1V431.85l-5,1.24-3.9,1.56L50,436.52,43,440c-9,4.67-17,8.41-23.22,12.46L.29,465.19l20.88-8.57c6.55-3.11,15.59-5.45,24.16-8.88s19.94-6.54,31.16-10l8.88-2.65,9.35-2.18,19.48-4.68c6.7-1.56,13.71-2.65,20.88-3.89s14.34-2.81,21.66-3.59l22.91-3.27c7.63-.78,15.58-1.25,23.06-1.87l11.68-.93h71.53l11.68.93c7.95,0,15.59,1.09,23.22,1.87l22.6,3c7.48,0,14.64,2.34,21.81,3.59s14,2.33,20.73,3.73l19.47,5.3,9.2,2.18,8.88,2.65c11.69,3.43,22.44,6.39,31.16,10s17.46,5.76,24,8.88c13.25,5.61,21,8.57,21,8.57Z" transform="translate(-0.29 -34.65)"/></svg>